# xmcd
#
# Track frame offsets:
#	150
#	17670
#	31442
#	45380
#	61960
#	76955
#	90115
#	104662
#	121402
#	135595
#	148480
#	161785
#
# Disc length: 2387 seconds
#
# Revision: 1
# Processed by: cddbd v1.5.2PL0 Copyright (c) Steve Scherf et al.
# Submitted via: audiograbber 1.83.01
#
DISCID=9d09510c
DTITLE=Gilliard - Sentimentos
DYEAR=1995
DGENRE=Boleros
TTITLE0=Tudo Foi Ilusão
TTITLE1=Caminho Verde
TTITLE2=Você
TTITLE3=Beijo Gelado
TTITLE4=Eu Digo Sim, Ela Diz Não
TTITLE5=Ciúme Demais
TTITLE6=Sentimental Demais
TTITLE7=Sabes Que Te Adoro
TTITLE8=Quem Será
TTITLE9=Toda Minha Vida
TTITLE10=Copo de Vinho
TTITLE11=Meu Velho
EXTD=Dados Por - Dayvison de Azevedo - Recife - PE\nFacebook - https://www.face
EXTD=book.com/profile.php?id=100006142608616\n\nFabricado pela Microservice\nDi
EXTD=stribuido pela Poligram do Brasil Ltda\n
EXTT0=ARCILINO TAVARTES - LAERTE SANTOS
EXTT1=CARMELO LAREA - VS GILLIARD
EXTT2=GABRIEL RUIZ - JOSE A ZORRILLA
EXTT3=RUBENS MACHADO
EXTT4=GILLIARD - REINALDO BARRIGA
EXTT5=J. LOU CARSON - VS GILLIARD
EXTT6=EVALDO GOUVEIA - JAIR AMORIM
EXTT7=TEDDY FREGOSO - VS GILLIARD
EXTT8=P. BELTRAN RUIZ - VS GILLIARD
EXTT9=FARRES - VS GILLIARD
EXTT10=BENITO DE JESUS - VS GILLIARD
EXTT11=
PLAYORDER=
